<?xml version="1.0" encoding="UTF-8" standalone="no"?>
<svg
   width="302.4pt"
   height="430.895755pt"
   viewBox="0 0 302.4 430.895755"
   version="1.1"
   id="svg446"
   sodipodi:docname="Sketch4_white.svg"
   inkscape:version="1.4.3 (0d15f75042, 2025-12-25)"
   xmlns:inkscape="http://www.inkscape.org/namespaces/inkscape"
   xmlns:sodipodi="http://sodipodi.sourceforge.net/DTD/sodipodi-0.dtd"
   xmlns="http://www.w3.org/2000/svg"
   xmlns:svg="http://www.w3.org/2000/svg"
   xmlns:rdf="http://www.w3.org/1999/02/22-rdf-syntax-ns#"
   xmlns:cc="http://creativecommons.org/ns#"
   xmlns:dc="http://purl.org/dc/elements/1.1/">
  <sodipodi:namedview
     id="namedview446"
     pagecolor="#505050"
     bordercolor="#eeeeee"
     borderopacity="1"
     inkscape:showpageshadow="0"
     inkscape:pageopacity="0"
     inkscape:pagecheckerboard="0"
     inkscape:deskcolor="#505050"
     inkscape:document-units="pt"
     inkscape:zoom="1.2251984"
     inkscape:cx="171.40081"
     inkscape:cy="288.93279"
     inkscape:window-width="1896"
     inkscape:window-height="1021"
     inkscape:window-x="0"
     inkscape:window-y="0"
     inkscape:window-maximized="1"
     inkscape:current-layer="figure_1" />
  <metadata
     id="metadata1">
    <rdf:RDF>
      <cc:Work>
        <dc:type
           rdf:resource="http://purl.org/dc/dcmitype/StillImage" />
        <dc:date>2026-01-30T13:58:45.615627</dc:date>
        <dc:format>image/svg+xml</dc:format>
        <dc:creator>
          <cc:Agent>
            <dc:title>Matplotlib v3.10.7, https://matplotlib.org/</dc:title>
          </cc:Agent>
        </dc:creator>
      </cc:Work>
    </rdf:RDF>
  </metadata>
  <defs
     id="defs1">
    <style
       type="text/css"
       id="style1">*{stroke-linejoin: round; stroke-linecap: butt}</style>
  </defs>
  <g
     id="figure_1">
    <g
       id="patch_1">
      <path
         d="M 0 430.895755  L 302.4 430.895755  L 302.4 0  L 0 0  z "
         style="fill: #ffffff; fill-opacity: 0"
         id="path1" />
    </g>
  </g>
  <defs
     id="defs446">
    <clipPath
       id="p49ca24da07">
      <rect
         x="7.2"
         y="7.2"
         width="288"
         height="416.495755"
         id="rect446" />
    </clipPath>
  </defs>
  <path
     style="fill:#ffffff;stroke-width:0.816194"
     d="m 36.0107,537.80711 c -5.075019,-0.99703 -7.274706,-2.69224 -7.913789,-6.09885 -0.670392,-3.57349 0.248783,-12.336 1.532483,-14.60918 0.519425,-0.91981 1.172019,-4.42703 1.450207,-7.79383 0.278189,-3.3668 1.010235,-7.31841 1.626769,-8.78137 0.995988,-2.36334 0.952628,-2.97249 -0.388901,-5.46356 -1.100236,-2.04302 -1.32784,-3.42503 -0.838925,-5.09394 0.369021,-1.25965 0.691239,-6.42346 0.71604,-11.47514 l 0.04509,-9.18485 2.531986,-1.54436 c 2.961718,-1.80646 3.566777,-4.27407 3.580489,-14.6023 0.0138,-10.39436 1.453606,-21.39082 4.617795,-35.26824 4.716778,-20.68673 6.663974,-26.95437 10.195593,-32.81762 1.885191,-3.12983 3.820481,-7.76643 4.517968,-10.82423 0.850323,-3.72782 2.197264,-6.64493 4.444,-9.62448 1.773125,-2.35145 3.362457,-5.00994 3.531849,-5.90776 1.354008,-7.17655 2.35214,-14.22864 2.945802,-20.81295 0.384511,-4.26462 1.132665,-11.42672 1.662567,-15.91579 1.147561,-9.72159 1.204876,-12.5372 0.366607,-18.00962 -0.56807,-3.70847 -0.370009,-4.64019 1.922966,-9.046 2.50725,-4.81752 2.532562,-4.97887 1.32013,-8.41527 -1.642119,-4.65427 -1.560464,-7.00856 0.442595,-12.76085 0.9233,-2.65149 2.556495,-8.49377 3.629322,-12.98284 1.072827,-4.48906 2.888413,-10.64951 4.034633,-13.68988 2.207567,-5.85561 2.621443,-8.75546 1.249607,-8.75546 -0.458937,0 -2.387509,1.43158 -4.285715,3.18128 -3.297849,3.03985 -6.036819,9.04729 -7.480608,16.40738 -0.22015,1.12227 -2.914104,5.89701 -5.986565,10.61053 -10.74999,16.49177 -13.114361,22.09131 -14.875022,35.22853 -0.709232,5.29195 -1.878095,8.89295 -5.255732,16.19171 -2.389012,5.16243 -4.509621,9.93509 -4.712464,10.6059 -0.336057,1.11136 -1.896753,-9.25743 -2.868741,-19.05906 -0.504007,-5.08244 0.952431,-8.44012 8.016513,-18.48125 5.927576,-8.42566 14.7874,-25.59578 20.2156,-39.17733 5.219054,-13.05825 7.221854,-16.25661 12.353804,-19.72833 2.468988,-1.67024 4.921521,-3.05668 5.450073,-3.08096 1.698595,-0.078 4.344054,-4.26606 4.350847,-6.88782 0.0053,-2.04082 -0.887996,-3.37114 -4.526659,-6.74132 l -4.533248,-4.19875 0.187665,-8.86036 C 79.517994,193.25952 77.949445,178.11636 75.9561,172.217 c -2.908604,-8.6081 -5.79651,-15.65612 -8.767135,-21.39644 -2.70871,-5.23423 -2.984851,-6.36674 -2.922221,-11.98472 0.07646,-6.85858 2.879142,-23.04045 4.838895,-27.93835 2.123925,-5.30821 5.541841,-7.55791 15.057013,-9.91064 11.984962,-2.963415 18.523648,-6.142917 22.537288,-10.958976 1.79649,-2.155655 3.53794,-4.788972 3.86989,-5.851814 0.53048,-1.698516 0.98,-1.881947 3.71347,-1.515312 2.63272,0.353121 3.44495,0.06743 5.29327,-1.861795 1.81328,-1.892648 2.38637,-3.641791 3.38109,-10.319505 2.15238,-14.449204 2.62818,-16.57374 4.79103,-21.393233 2.39426,-5.335111 7.45173,-9.832026 13.42966,-11.941164 4.38036,-1.545485 14.86621,-1.583234 19.20383,-0.06913 9.57211,3.341262 23.25679,13.316528 23.26657,16.959856 0.003,1.030446 0.5537,2.925561 1.22429,4.211369 1.71567,3.289635 1.55501,6.015646 -0.39094,6.633264 -1.39829,0.443802 -1.54771,1.014961 -1.13539,4.340022 0.46153,3.721963 0.43681,3.777644 -0.88467,1.992526 -0.7477,-1.01004 -1.84772,-1.836437 -2.44447,-1.836437 -1.0456,0 -3.7196,4.624877 -3.7196,6.433306 0,0.484738 -0.90285,1.107944 -2.00634,1.384902 -1.86656,0.468476 -2.02294,0.910274 -2.24454,6.341057 -0.23812,5.835849 -0.23896,5.837746 -2.98905,6.726631 -1.51298,0.489023 -3.12231,1.590886 -3.5763,2.448583 -0.45399,0.857696 -1.84096,2.66131 -3.08215,4.00803 -1.24118,1.346721 -2.50652,3.63779 -2.81187,5.09126 -0.74075,3.52611 -3.92775,5.92736 -7.86694,5.92736 -3.09695,0 -3.13479,0.0381 -3.03897,3.06073 0.0534,1.6834 -0.18154,3.88712 -0.522,4.89716 -0.52707,1.56365 -0.3303,1.83644 1.32469,1.83644 1.06905,0 3.31427,0.73458 4.9894,1.63239 3.81189,2.04305 4.86355,2.03668 10.40888,-0.063 2.46264,-0.93244 7.41584,-2.72518 11.00709,-3.98384 11.61414,-4.07052 19.52734,-7.46684 22.29279,-9.56797 3.61335,-2.74535 9.06994,-9.760164 14.13578,-18.172529 4.63853,-7.702754 4.54881,-6.657701 1.84323,-21.469366 -1.51341,-8.285125 -1.41413,-8.234387 -11.20302,-5.725535 -5.40291,1.384747 -5.61432,1.381576 -6.69802,-0.10048 -0.61546,-0.841696 -1.54359,-3.575518 -2.06252,-6.075161 -0.88393,-4.257887 -0.83304,-4.634245 0.80611,-5.961548 0.96228,-0.77921 3.85003,-1.819395 6.41723,-2.311522 2.56719,-0.492129 8.42113,-1.801293 13.00876,-2.909254 4.58763,-1.107961 9.62758,-2.014475 11.19987,-2.014475 2.77431,0 2.89859,0.137113 4.20852,4.643121 0.91383,3.143465 1.0957,5.054696 0.5631,5.917409 -0.43269,0.700858 -3.78449,2.325934 -7.44845,3.61128 -5.16607,1.812297 -6.66176,2.683558 -6.66176,3.880585 0,1.802091 3.761,16.589963 4.9102,19.306391 0.60594,1.432315 1.22428,1.743948 2.71698,1.369306 1.87614,-0.470885 4.61574,1.261646 4.61574,2.919018 0,0.396437 0.95563,1.676431 2.12364,2.844432 1.4291,1.429097 1.97907,2.676424 1.68163,3.813851 -0.2431,0.929618 0.0457,2.469867 0.6418,3.422774 1.88076,3.006557 1.09245,11.076283 -1.44711,14.813573 -1.20107,1.76754 -2.18377,3.82373 -2.18377,4.5693 0,1.79224 -2.03817,2.49741 -5.39707,1.86727 -2.1882,-0.41051 -3.21645,-0.10215 -5.18621,1.55529 -1.35127,1.13702 -4.41282,2.63593 -6.80344,3.3309 -5.15814,1.49951 -8.19859,3.6597 -18.52583,13.16233 -4.26461,3.92409 -9.86575,8.75987 -12.44696,10.74617 -2.58122,1.98631 -4.69312,3.9363 -4.69312,4.33331 0,0.397 0.75007,1.9931 1.66681,3.54686 1.57878,2.67584 1.60432,3.09551 0.48359,7.94667 l -1.18322,5.12166 3.64502,3.54254 c 3.48097,3.38312 3.62139,3.70005 3.12019,7.0423 -0.5988,3.9931 0.24723,5.14354 4.10243,5.57851 2.12983,0.24032 2.53499,0.70127 3.11237,3.54105 0.36509,1.79563 1.57293,5.03494 2.68409,7.19848 1.90254,3.70439 1.9471,4.08042 0.76455,6.4509 -0.69066,1.38447 -1.25575,2.62724 -1.25575,2.76171 0,0.13449 1.74462,1.01509 3.87693,1.9569 2.1323,0.94182 4.97878,2.72524 6.3255,3.96317 5.62818,5.17351 13.40663,9.73667 19.41982,11.39247 2.53436,0.69785 3.94082,0.55669 7.75385,-0.77826 5.94807,-2.08245 9.41942,-1.6401 15.43325,1.96661 2.60279,1.56099 6.13017,3.08795 7.83861,3.39323 1.70843,0.30529 3.82033,1.26916 4.69312,2.14194 0.87277,0.87277 2.5969,1.59134 3.83139,1.59683 1.23449,0.005 5.18283,1.31374 8.77409,2.90726 12.79197,5.67605 19.96462,7.88346 23.76451,7.31364 3.89917,-0.58473 7.1615,0.68613 10.28548,4.00674 1.49636,1.59055 3.22658,2.16124 8.80021,2.90268 7.29555,0.9705 25.3563,5.24795 27.89481,6.60653 1.70767,0.9139 1.97271,2.86492 0.46794,3.44456 -0.56113,0.21616 -4.36846,0.1946 -8.46072,-0.0479 -8.68873,-0.51488 -11.96577,0.0568 -11.58745,2.02123 0.17927,0.93086 1.66717,1.62519 4.74735,2.21538 3.7741,0.72314 4.52909,1.16208 4.75612,2.76518 0.28113,1.98495 4.22755,4.21586 7.45776,4.21586 1.07842,0 1.6586,0.53606 1.6586,1.53246 0,0.84284 0.48069,1.93137 1.06818,2.41895 1.1389,0.9452 19.1036,4.58483 26.82936,5.4356 6.09787,0.6715 7.58814,2.31134 4.50814,4.96065 -3.28441,2.82512 -11.73767,5.1259 -22.81609,6.20999 l -9.79235,0.95824 -1.05336,2.50521 c -1.01231,2.40758 -1.25489,2.50826 -6.22413,2.58313 -8.78893,0.13245 -7.83776,-0.92422 -13.81872,15.35134 -3.5176,9.57221 -3.80542,8.96557 5.69211,11.99693 3.3931,1.08298 3.65028,1.3881 5.08919,6.03779 0.83352,2.69344 1.5209,6.10793 1.52751,7.58775 0.01,2.17305 0.50622,2.95805 2.58119,4.08098 3.75933,2.03447 7.75626,5.62726 9.55533,8.58915 1.52468,2.51016 1.59595,5.71307 2.16619,97.34764 l 0.58962,94.75208 -10.01687,0.5386 c -5.50929,0.29624 -30.8946,0.53861 -56.41182,0.53861 h -46.39493 v -4.02597 c 0,-5.11655 -1.10313,-5.54443 -9.48596,-3.67944 -8.00718,1.78144 -14.88351,1.27332 -20.36611,-1.50493 -7.17885,-3.63779 -14.61186,-3.63696 -16.23078,0.002 -1.00427,2.25729 -2.61371,2.6542 -10.81799,2.66783 -5.95833,0.01 -6.80589,-0.17758 -7.61202,-1.68385 -0.49892,-0.93225 -1.11823,-6.44156 -1.37625,-12.24292 -0.42664,-9.59306 -0.60731,-10.54791 -1.99576,-10.54791 -1.97776,0 -2.75083,-1.93379 -4.70662,-11.77326 -1.20456,-6.06001 -2.23595,-8.97183 -4.09473,-11.56014 -2.91101,-4.0535 -3.12761,-6.48426 -0.79871,-8.96327 l 1.68593,-1.79458 -2.9787,-9.68474 c -1.63829,-5.32661 -3.5174,-11.11597 -4.17583,-12.86525 -0.65841,-1.74928 -2.32433,-7.62588 -3.70203,-13.05911 -2.15432,-8.49595 -2.57693,-11.93488 -3.01942,-24.5701 l -0.51449,-14.6915 -13.05911,0.20247 c -7.18251,0.11136 -17.15628,0.42088 -22.16393,0.68783 l -9.104819,0.48536 -1.617729,3.89269 c -0.88975,2.14098 -3.13689,9.1772 -4.993644,15.63606 -1.856754,6.45885 -6.16519,20.17276 -9.574303,30.47536 l -6.198387,18.732 2.136527,1.83775 c 2.737146,2.3544 2.688572,3.91655 -0.295677,9.50891 -1.337712,2.50681 -3.198268,7.4165 -4.134569,10.91042 -0.9363,3.49391 -2.055918,6.77857 -2.488039,7.29925 -0.43212,0.52067 -3.158794,1.20081 -6.059272,1.51143 -2.90048,0.31061 -5.538367,0.99316 -5.861972,1.51676 -0.323606,0.52361 -0.520395,3.24588 -0.43731,6.0495 0.154788,5.22316 1.796133,9.57407 5.469832,14.49956 9.445786,12.66437 4.155104,18.47198 -16.648331,18.27494 -5.193179,-0.0492 -11.050769,-0.40545 -13.016867,-0.79171 z M 233.92158,459.1093 c -0.27535,-27.83222 -0.55053,-64.61666 -0.61151,-81.74318 -0.10957,-30.77047 -0.0896,-31.1736 1.68794,-34.04971 1.24645,-2.01678 3.42185,-3.70957 7.08415,-5.51252 2.90692,-1.43106 5.47528,-2.90932 5.70747,-3.28502 0.23218,-0.37568 0.7786,-2.98138 1.21425,-5.79045 1.04931,-6.76597 2.19113,-9.43268 4.30819,-10.0618 0.96176,-0.2858 3.86056,-1.45003 6.44177,-2.58718 3.75352,-1.65361 4.69312,-2.44335 4.69312,-3.94458 0,-5.86108 -8.37213,-32.98584 -13.50053,-43.74021 -1.17823,-2.47076 -2.07036,-3.15164 -5.18398,-3.95641 -2.06846,-0.53463 -7.25007,-2.00841 -11.51468,-3.27507 -4.26462,-1.26666 -9.31482,-2.71294 -11.22267,-3.21395 -3.5712,-0.93781 -4.14879,-1.93525 -2.42263,-4.18352 1.51296,-1.97057 4.34902,-3.25606 12.75794,-5.78274 8.64116,-2.59647 11.84436,-2.80489 17.364,-1.12982 2.1041,0.63854 6.51154,1.39632 9.79434,1.68396 3.28278,0.28765 9.45792,1.19942 13.72254,2.02618 19.2716,3.73607 25.18022,4.46132 28.01003,3.43805 1.49224,-0.5396 3.71175,-0.98109 4.93226,-0.98109 2.45274,0 8.68362,-2.88289 8.68362,-4.01772 0,-1.00593 -4.6281,-2.51184 -7.71964,-2.51184 -1.41839,0 -3.29184,0.53925 -4.16323,1.19834 -0.87138,0.65908 -3.22165,1.21001 -5.2228,1.22429 -3.02938,0.0216 -4.12243,-0.43274 -6.52955,-2.71414 -2.80347,-2.65704 -3.24606,-2.78251 -14.60216,-4.13949 -11.04638,-1.31998 -20.142,-3.74058 -21.53636,-5.73144 -0.40813,-0.58274 -0.60364,-0.58581 -0.61214,-0.01 -0.007,0.46559 -0.8389,0.90806 -1.84894,0.98324 -1.01004,0.0752 -2.46859,0.91552 -3.24123,1.86742 -1.28331,1.58106 -1.65383,1.64068 -4.28449,0.68942 -2.17577,-0.78677 -3.1099,-0.8111 -3.82145,-0.0995 -0.66442,0.66442 -1.40272,0.69507 -2.50697,0.1041 -1.0533,-0.56371 -2.33007,-0.57104 -3.90389,-0.0224 -2.03421,0.70913 -3.0157,0.40696 -7.53855,-2.3209 -6.92727,-4.17803 -16.6864,-6.46541 -31.63297,-7.41425 -6.50915,-0.41322 -12.79942,-0.95501 -13.97838,-1.20397 -3.4523,-0.72904 -4.87938,1.37396 -4.35987,6.42483 0.2391,2.32456 0.96963,9.73578 1.62339,16.46939 1.7993,18.53243 2.7457,26.32765 4.01326,33.05587 2.08386,11.06119 3.63667,21.52279 4.17958,28.1587 0.29382,3.59125 1.04709,8.91692 1.67393,11.83482 0.62684,2.91789 2.23976,13.38558 3.58424,23.26154 1.3445,9.87595 3.15097,21.4455 4.01441,25.71012 0.86343,4.26461 1.69053,10.14121 1.838,13.05911 l 0.26812,5.30526 -5.50931,0.70759 c -6.29997,0.80914 -5.99712,0.0941 -4.36744,10.31103 1.38211,8.66483 4.97989,32.52972 6.21385,41.21781 1.58853,11.18467 1.79319,12.2147 2.63527,13.26316 0.45068,0.56114 1.67974,1.02025 2.73124,1.02025 2.46483,0 3.41093,1.85689 4.89314,9.6037 0.66056,3.45246 2.33265,8.73229 3.71574,11.73294 l 2.51471,5.45573 -1.51644,2.57598 c -0.83403,1.41679 -2.71476,3.31801 -4.17938,4.22494 -4.62901,2.86638 -4.74399,4.13148 -0.81333,8.94919 4.52386,5.54479 9.25517,8.05493 15.23542,8.08296 2.6843,0.0126 5.90967,0.64469 7.82953,1.53441 5.7896,2.68309 5.54296,5.24662 4.97907,-51.75176 z m 50.11404,-221.49682 c 0,-1.16645 -1.73069,-2.20692 -7.34575,-4.41614 -8.34513,-3.28338 -20.33834,-6.40361 -23.57369,-6.1331 -2.64661,0.22129 -2.97834,0.51119 -3.20075,2.79713 -0.40067,4.11819 1.04238,4.78111 13.83239,6.35443 6.44477,0.79277 11.8708,1.59273 12.05785,1.77767 0.67514,0.66758 8.22995,0.31877 8.22995,-0.37999 z"
     id="path447"
     transform="scale(0.75)" />
</svg>
