<svg viewBox="30 0 400 600" xmlns="http://www.w3.org/2000/svg">
	<path fill="currentColor" d="m 36.011 537.807 c -5.075 -0.997,-7.275 -2.692,-7.914 -6.099 c -0.67 -3.573,0.249 -12.336,1.532 -14.609 c 0.52 -0.92,1.172 -4.427,1.451 -7.794 c 0.278 -3.367,1.01 -7.318,1.626 -8.781 c 0.996 -2.363,0.953 -2.973,-0.389 -5.464 c -1.1 -2.043,-1.327 -3.425,-0.838 -5.094 c 0.369 -1.259,0.691 -6.423,0.716 -11.475 l 0.045 -9.185 l 2.532 -1.544 c 2.961 -1.806,3.566 -4.274,3.58 -14.602 c 0.014 -10.395,1.454 -21.391,4.618 -35.269 c 4.717 -20.686,6.664 -26.954,10.196 -32.817 c 1.885 -3.13,3.82 -7.767,4.518 -10.824 c 0.85 -3.728,2.197 -6.645,4.444 -9.625 c 1.773 -2.351,3.362 -5.01,3.531 -5.908 c 1.354 -7.176,2.352 -14.228,2.946 -20.813 c 0.385 -4.264,1.133 -11.426,1.663 -15.915 c 1.147 -9.722,1.205 -12.538,0.366 -18.01 c -0.568 -3.708,-0.37 -4.64,1.923 -9.046 c 2.508 -4.817,2.533 -4.979,1.32 -8.415 c -1.642 -4.654,-1.56 -7.009,0.443 -12.761 c 0.923 -2.652,2.557 -8.494,3.629 -12.983 c 1.073 -4.489,2.889 -10.649,4.035 -13.69 c 2.208 -5.855,2.621 -8.755,1.25 -8.755 c -0.459 0,-2.388 1.431,-4.286 3.181 c -3.298 3.04,-6.037 9.047,-7.481 16.407 c -0.22 1.123,-2.914 5.897,-5.986 10.611 c -10.75 16.492,-13.115 22.091,-14.875 35.228 c -0.71 5.292,-1.878 8.893,-5.256 16.192 c -2.389 5.163,-4.51 9.935,-4.713 10.606 c -0.336 1.111,-1.896 -9.257,-2.868 -19.059 c -0.504 -5.082,0.952 -8.44,8.016 -18.481 c 5.928 -8.426,14.788 -25.596,20.216 -39.178 c 5.219 -13.058,7.222 -16.256,12.354 -19.728 c 2.469 -1.67,4.921 -3.057,5.45 -3.081 c 1.698 -0.078,4.344 -4.266,4.351 -6.888 c 0.005 -2.04,-0.888 -3.371,-4.527 -6.741 l -4.533 -4.199 l 0.187 -8.86 c 0.235 -11.079,-1.334 -26.223,-3.327 -32.122 c -2.909 -8.608,-5.796 -15.656,-8.767 -21.396 c -2.709 -5.235,-2.985 -6.367,-2.922 -11.985 c 0.076 -6.859,2.879 -23.041,4.839 -27.939 c 2.124 -5.308,5.541 -7.557,15.057 -9.91 c 11.985 -2.964,18.523 -6.143,22.537 -10.959 c 1.796 -2.156,3.538 -4.789,3.87 -5.852 c 0.53 -1.698,0.98 -1.882,3.713 -1.515 c 2.633 0.353,3.445 0.067,5.294 -1.862 c 1.813 -1.893,2.386 -3.642,3.381 -10.32 c 2.152 -14.449,2.628 -16.573,4.791 -21.393 c 2.394 -5.335,7.451 -9.832,13.429 -11.941 c 4.381 -1.545,14.867 -1.583,19.204 -0.069 c 9.572 3.341,23.257 13.316,23.267 16.96 c 0.003 1.03,0.553 2.925,1.224 4.211 c 1.716 3.29,1.555 6.016,-0.391 6.633 c -1.398 0.444,-1.548 1.015,-1.135 4.34 c 0.461 3.722,0.437 3.778,-0.885 1.993 c -0.748 -1.01,-1.848 -1.836,-2.444 -1.836 c -1.046 0,-3.72 4.624,-3.72 6.433 c 0 0.485,-0.903 1.108,-2.006 1.385 c -1.867 0.468,-2.023 0.91,-2.245 6.341 c -0.238 5.836,-0.239 5.838,-2.989 6.726 c -1.513 0.489,-3.122 1.591,-3.576 2.449 c -0.454 0.858,-1.841 2.661,-3.082 4.008 c -1.242 1.347,-2.507 3.638,-2.812 5.091 c -0.741 3.526,-3.928 5.928,-7.867 5.928 c -3.097 0,-3.135 0.038,-3.039 3.06 c 0.053 1.684,-0.182 3.888,-0.522 4.898 c -0.527 1.563,-0.33 1.836,1.325 1.836 c 1.069 0,3.314 0.735,4.989 1.632 c 3.812 2.043,4.863 2.037,10.409 -0.063 c 2.462 -0.932,7.416 -2.725,11.007 -3.983 c 11.614 -4.071,19.527 -7.467,22.293 -9.568 c 3.613 -2.746,9.07 -9.761,14.135 -18.173 c 4.639 -7.703,4.549 -6.658,1.844 -21.469 c -1.514 -8.285,-1.414 -8.235,-11.203 -5.726 c -5.403 1.385,-5.615 1.382,-6.698 -0.1 c -0.616 -0.842,-1.544 -3.576,-2.063 -6.076 c -0.884 -4.257,-0.833 -4.634,0.806 -5.961 c 0.963 -0.779,3.85 -1.819,6.417 -2.312 c 2.568 -0.492,8.422 -1.801,13.009 -2.909 c 4.588 -1.108,9.628 -2.014,11.2 -2.014 c 2.774 0,2.899 0.137,4.209 4.643 c 0.913 3.143,1.095 5.055,0.563 5.917 c -0.433 0.701,-3.785 2.326,-7.449 3.612 c -5.166 1.812,-6.662 2.683,-6.662 3.88 c 0 1.802,3.761 16.59,4.911 19.306 c 0.606 1.433,1.224 1.744,2.717 1.37 c 1.876 -0.471,4.615 1.261,4.615 2.919 c 0 0.396,0.956 1.676,2.124 2.844 c 1.429 1.429,1.979 2.677,1.682 3.814 c -0.243 0.93,0.045 2.47,0.641 3.423 c 1.881 3.006,1.093 11.076,-1.447 14.813 c -1.201 1.768,-2.183 3.824,-2.183 4.57 c 0 1.792,-2.039 2.497,-5.397 1.867 c -2.189 -0.411,-3.217 -0.102,-5.187 1.555 c -1.351 1.137,-4.413 2.636,-6.803 3.331 c -5.158 1.5,-8.199 3.66,-18.526 13.163 c -4.265 3.924,-9.866 8.759,-12.447 10.746 c -2.581 1.986,-4.693 3.936,-4.693 4.333 c 0 0.397,0.75 1.993,1.667 3.547 c 1.579 2.676,1.604 3.095,0.483 7.947 l -1.183 5.121 l 3.645 3.543 c 3.481 3.383,3.622 3.7,3.12 7.042 c -0.598 3.993,0.248 5.144,4.103 5.579 c 2.13 0.24,2.535 0.701,3.112 3.541 c 0.365 1.795,1.573 5.035,2.684 7.198 c 1.903 3.704,1.947 4.08,0.765 6.451 c -0.691 1.384,-1.256 2.627,-1.256 2.762 c 0 0.134,1.745 1.015,3.877 1.957 c 2.132 0.941,4.979 2.725,6.325 3.963 c 5.629 5.173,13.407 9.736,19.42 11.392 c 2.535 0.698,3.941 0.557,7.754 -0.778 c 5.948 -2.082,9.42 -1.64,15.433 1.967 c 2.603 1.561,6.131 3.088,7.839 3.393 c 1.708 0.305,3.82 1.269,4.693 2.142 c 0.873 0.873,2.597 1.591,3.832 1.597 c 1.234 0.005,5.182 1.313,8.774 2.907 c 12.792 5.676,19.964 7.883,23.764 7.313 c 3.899 -0.584,7.162 0.687,10.286 4.007 c 1.496 1.591,3.226 2.161,8.8 2.903 c 7.295 0.97,25.356 5.248,27.895 6.606 c 1.707 0.914,1.972 2.865,0.468 3.445 c -0.562 0.216,-4.369 0.195,-8.461 -0.048 c -8.689 -0.515,-11.966 0.057,-11.588 2.021 c 0.18 0.931,1.668 1.626,4.748 2.216 c 3.774 0.723,4.529 1.162,4.756 2.765 c 0.281 1.985,4.227 4.216,7.458 4.216 c 1.078 0,1.658 0.536,1.658 1.532 c 0 0.843,0.481 1.932,1.068 2.419 c 1.139 0.945,19.104 4.585,26.83 5.436 c 6.098 0.671,7.588 2.311,4.508 4.96 c -3.285 2.826,-11.738 5.126,-22.816 6.21 l -9.793 0.959 l -1.053 2.505 c -1.012 2.407,-1.255 2.508,-6.224 2.583 c -8.789 0.132,-7.838 -0.924,-13.819 15.351 c -3.517 9.573,-3.805 8.966,5.692 11.997 c 3.393 1.083,3.651 1.388,5.09 6.038 c 0.833 2.693,1.52 6.108,1.527 7.588 c 0.01 2.173,0.506 2.958,2.581 4.081 c 3.76 2.034,7.757 5.627,9.556 8.589 c 1.524 2.51,1.596 5.713,2.166 97.348 l 0.589 94.752 l -10.016 0.538 c -5.51 0.296,-30.895 0.539,-56.412 0.539 h -46.395 v -4.026 c 0 -5.117,-1.103 -5.545,-9.486 -3.68 c -8.007 1.782,-14.884 1.274,-20.366 -1.505 c -7.179 -3.637,-14.612 -3.636,-16.231 0.002 c -1.004 2.258,-2.614 2.655,-10.818 2.668 c -5.958 0.01,-6.806 -0.177,-7.612 -1.684 c -0.499 -0.932,-1.118 -6.441,-1.376 -12.242 c -0.427 -9.594,-0.608 -10.548,-1.996 -10.548 c -1.978 0,-2.751 -1.934,-4.707 -11.774 c -1.204 -6.06,-2.236 -8.971,-4.094 -11.56 c -2.911 -4.053,-3.128 -6.484,-0.799 -8.963 l 1.686 -1.795 l -2.979 -9.684 c -1.638 -5.327,-3.517 -11.116,-4.176 -12.866 c -0.658 -1.749,-2.324 -7.625,-3.702 -13.059 c -2.154 -8.496,-2.577 -11.935,-3.019 -24.57 l -0.515 -14.691 l -13.059 0.202 c -7.182 0.112,-17.156 0.421,-22.164 0.688 l -9.105 0.485 l -1.617 3.893 c -0.89 2.141,-3.137 9.177,-4.994 15.636 c -1.857 6.459,-6.165 20.173,-9.574 30.475 l -6.199 18.732 l 2.137 1.838 c 2.737 2.355,2.688 3.917,-0.296 9.509 c -1.337 2.507,-3.198 7.417,-4.134 10.911 c -0.937 3.493,-2.056 6.778,-2.488 7.299 c -0.432 0.52,-3.159 1.201,-6.06 1.511 c -2.9 0.311,-5.538 0.993,-5.862 1.517 c -0.323 0.524,-0.52 3.246,-0.437 6.049 c 0.155 5.224,1.796 9.575,5.47 14.5 c 9.446 12.664,4.155 18.472,-16.648 18.275 c -5.194 -0.049,-11.051 -0.405,-13.017 -0.792 z m 197.911 -78.698 c -0.276 -27.832,-0.551 -64.616,-0.612 -81.743 c -0.109 -30.77,-0.09 -31.173,1.688 -34.05 c 1.246 -2.016,3.422 -3.709,7.084 -5.512 c 2.907 -1.431,5.475 -2.909,5.708 -3.285 c 0.232 -0.376,0.778 -2.982,1.214 -5.791 c 1.049 -6.766,2.191 -9.432,4.308 -10.061 c 0.962 -0.286,3.861 -1.45,6.442 -2.588 c 3.753 -1.653,4.693 -2.443,4.693 -3.944 c 0 -5.861,-8.372 -32.986,-13.501 -43.74 c -1.178 -2.471,-2.07 -3.152,-5.184 -3.957 c -2.068 -0.534,-7.25 -2.008,-11.514 -3.275 c -4.265 -1.266,-9.315 -2.713,-11.223 -3.214 c -3.571 -0.938,-4.149 -1.935,-2.423 -4.183 c 1.513 -1.971,4.349 -3.256,12.758 -5.783 c 8.642 -2.597,11.845 -2.805,17.364 -1.13 c 2.105 0.639,6.512 1.396,9.795 1.684 c 3.283 0.288,9.458 1.2,13.722 2.026 c 19.272 3.736,25.181 4.462,28.01 3.438 c 1.493 -0.539,3.712 -0.981,4.933 -0.981 c 2.452 0,8.683 -2.883,8.683 -4.017 c 0 -1.006,-4.628 -2.512,-7.719 -2.512 c -1.419 0,-3.292 0.539,-4.164 1.198 c -0.871 0.659,-3.221 1.21,-5.222 1.224 c -3.03 0.022,-4.123 -0.432,-6.53 -2.714 c -2.803 -2.657,-3.246 -2.782,-14.602 -4.139 c -11.047 -1.32,-20.142 -3.741,-21.537 -5.732 c -0.408 -0.582,-0.603 -0.586,-0.612 -0.01 c -0.007 0.466,-0.839 0.908,-1.849 0.983 c -1.01 0.076,-2.468 0.916,-3.241 1.868 c -1.283 1.581,-1.654 1.641,-4.284 0.689 c -2.176 -0.786,-3.11 -0.811,-3.822 -0.099 c -0.664 0.664,-1.403 0.695,-2.507 0.104 c -1.053 -0.564,-2.33 -0.571,-3.904 -0.022 c -2.034 0.709,-3.015 0.406,-7.538 -2.321 c -6.927 -4.178,-16.687 -6.466,-31.633 -7.415 c -6.509 -0.413,-12.8 -0.955,-13.979 -1.204 c -3.452 -0.729,-4.879 1.374,-4.359 6.425 c 0.239 2.325,0.969 9.736,1.623 16.47 c 1.799 18.532,2.746 26.327,4.013 33.055 c 2.084 11.062,3.637 21.523,4.18 28.159 c 0.294 3.591,1.047 8.917,1.674 11.835 c 0.627 2.918,2.239 13.386,3.584 23.262 c 1.344 9.876,3.151 21.445,4.014 25.71 c 0.864 4.264,1.691 10.141,1.838 13.059 l 0.269 5.305 l -5.51 0.708 c -6.3 0.809,-5.997 0.094,-4.367 10.311 c 1.382 8.664,4.98 32.529,6.214 41.217 c 1.588 11.185,1.793 12.215,2.635 13.264 c 0.451 0.561,1.68 1.02,2.731 1.02 c 2.465 0,3.411 1.857,4.893 9.604 c 0.661 3.452,2.333 8.732,3.716 11.733 l 2.515 5.455 l -1.517 2.576 c -0.834 1.417,-2.714 3.318,-4.179 4.225 c -4.629 2.867,-4.744 4.132,-0.813 8.949 c 4.523 5.545,9.255 8.055,15.235 8.083 c 2.684 0.013,5.91 0.645,7.83 1.535 c 5.789 2.683,5.542 5.246,4.979 -51.752 z m 50.114 -221.497 c 0 -1.166,-1.731 -2.206,-7.346 -4.416 c -8.345 -3.283,-20.338 -6.403,-23.574 -6.133 c -2.646 0.222,-2.978 0.511,-3.201 2.797 c -0.4 4.119,1.043 4.781,13.833 6.355 c 6.445 0.793,11.871 1.593,12.058 1.777 c 0.675 0.668,8.23 0.319,8.23 -0.38 z" />

</svg>
